<svg viewBox="111.22979679144385 0 147.11358288770055 186.78928" xmlns="http://www.w3.org/2000/svg" data-name="Layer 2" id="Layer_2" style="max-height: 500px" width="147.11358288770055" height="186.78928">
  <defs>
    <style>
      .cls-1 {
        fill: #e96a2c;
      }
    </style>
  </defs>
  <g data-name="Layer 1" id="Layer_1-2">
    <g>
      <path d="m257.56,70.01c0,20.09.93,40.26-.54,60.25-1.8,24.36-13,43.09-36.68,51.38-23.15,8.1-47.3,4.72-64.29-12.61-13.76-14.03-17.56-33.91-10.02-52.54,3.04-7.52,8.33-13.67,14.77-18.58,6.45-4.93,13.45-9.17,20.24-13.68,4.05-2.69,8.22-5.25,12.18-8.03,19.4-13.62,15.67-30.58,8.68-41.51-8.46-13.22-28.95-19.46-45.6-13.09-14.29,5.46-22.93,18.23-23.75,33.08-.34,6.27-1.07,12.51-1.11,18.81-.18,33-.03,66-.09,99,0,2.45-.39,5.02-1.23,7.31-1.41,3.82-4.35,6.16-8.73,6.18-4.38.02-7.29-2.3-8.79-6.11-.78-1.99-1.21-4.24-1.22-6.37-.07-38-.21-76,.03-114,.11-17.96,6.33-33.9,20.52-45.79,18.68-15.65,39.95-17.03,62.21-8.36,35.68,13.88,43.94,59.91,14.15,85.33-7.25,6.19-15.77,10.98-23.71,16.41-3.84,2.63-7.99,4.91-11.43,7.96-7.14,6.31-9.88,14.27-8.41,23.69,3.28,21.13,29.54,32.97,49.63,24.47,16.43-6.96,21.77-17.73,22.78-36.92.13-2.4.55-6.84.55-10.27.04-35.29,0-70.58.03-105.88,0-7.6,6.49-11.97,13.79-9.41,3.87,1.36,5.96,4.35,6.02,9,.08,6.97.03,13.95.03,20.93,0,13.12,0,26.23,0,39.35h-.24" class="cls-1"/>
      <path d="m.4,230.7c-.22,0-.4-.18-.4-.4v-4.03c0-.22.18-.4.4-.4h30.31c4.33,0,7.96,3.36,8.29,7.68v.04s0,.02,0,.03h0c.01.19.02.38.02.56,0,.2,0,.4-.02.6v.03s0,0,0,.01v.02s0,.04-.01.07v.02s0,.03,0,.05l-.03.3s0,.02,0,.04v.06s0,.02-.01.03v.03s-.03.15-.03.15c0,0,0,0,0,0l-.03.15-.02.08v.06s-.03.09-.03.09c0,0,0,.02,0,.02,0,.02,0,.04-.01.07l-.08.3s0,.02,0,.02v.03s-.04.11-.04.11c0,0,0,.01,0,.02h0c-.02.07-.04.13-.05.18l-.05.17s0,.02-.01.03l-.02.05-.04.12s0,.02-.01.03l-.06.15-.03.08s0,.02,0,.02l-.06.13s0,.01-.01.02l-.03.07h0s0,.03-.01.04l-.02.04c-.04.09-.09.17-.13.26h0c0,.11-.03.19-.09.26l-.09.11-.32.48s0,0,0,.01l-.02.02-.06.08-.03.04s0,.01-.01.02l-.07.1h0s0,.02-.01.03l-.05.06s0,0,0,0l-.04.06-.02.03s0,0-.01.01h-.01s-.02.05-.04.08l-.07.08s0,0-.01.01l-.11.14s-.02.02-.02.02h0s0,.02,0,.02h-.01s-.02.05-.04.07l-.25.26c-.03.08-.08.14-.15.19l-.1.07-.07.06h0s-.02.02-.03.03h-.01s-.25.23-.25.23c-.02.01-.03.02-.05.03h-.02s-.02.03-.03.04l-.21.17s-.03.02-.05.03h0s-.03.03-.03.03c0,0-.01.01-.02.02l-.08.05-.04.03-.08.06s-.01.01-.02.02l-.09.06-.03.02-.11.08s-.01.01-.02.02l-.05.03-.12.08s-.03.02-.04.03l-.05.02-.06.04-.19.11s-.01,0-.02.01h-.02s-.11.06-.11.06c-.01,0-.03.02-.04.02l-.11.05s-.05.03-.07.04l-.17.08c-.12.05-.23.1-.36.15h-.03s-.29.13-.29.13c-.03.01-.05.02-.08.02h-.01s-.07.03-.1.04l-.16.05s-.04.01-.06.02l-.1.03s-.05.01-.07.02l-.09.03s-.06.01-.09.02h0c-.65.16-1.32.24-1.98.24H6.83c-1.1,0-2.02.91-2.02,2.01v3.49c0,.22-.18.4-.4.4H.4c-.22,0-.4-.18-.4-.4v-3.49c0-3.76,3.07-6.83,6.83-6.83h23.88c1.77,0,3.29-1.36,3.47-3.12.01-.12.02-.25.02-.37s0-.25-.02-.37c-.19-1.76-1.71-3.12-3.47-3.12H.4Z" class="cls-1"/>
      <path d="m48.4,248.39h-5.26c-.16,0-.29-.09-.36-.23-.07-.15-.05-.3.05-.42l15.57-18.55c1.81-2.16,4.29-3.31,7.11-3.31h.17c2.8,0,5.24,1.14,7.06,3.26h0s.01.02.02.03l15.58,18.58c.1.12.12.28.06.42-.07.14-.2.23-.36.23h-5.26c-.12,0-.22-.05-.3-.14l-13.39-15.95c-.9-1.07-2.02-1.6-3.42-1.6h-.17c-1.41,0-2.53.52-3.43,1.6l-13.38,15.95c-.08.09-.18.14-.3.14" class="cls-1"/>
      <path d="m92.57,243.57h27.37c3.53,0,6.43-2.91,6.43-6.44s-2.9-6.43-6.43-6.43h-27.37c-.22,0-.4-.18-.4-.4v-4.03c0-.22.18-.4.4-.4h27.37c6.19,0,11.25,5.07,11.25,11.26s-5.06,11.26-11.25,11.26h-27.37c-.22,0-.4-.18-.4-.4v-4.02c0-.22.18-.4.4-.4" class="cls-1"/>
      <path d="m136.53,237.14c-.99-1.15-1.56-2.6-1.63-4.12v-.07s0-.03,0-.05v-.03c0-.05,0-.1,0-.16,0-3.76,3.07-6.83,6.83-6.83h31.78c.22,0,.4.18.4.4v4.03c0,.22-.18.4-.4.4h-31.85c-1.08.04-1.95.93-1.95,2.01s.91,2.02,2.01,2.02h31.79c.22,0,.4.18.4.4v4.02c0,.22-.18.4-.4.4h-31.84c-1.02.04-1.87.85-1.94,1.87,0,.05,0,.09,0,.14,0,1.08.88,1.98,1.96,2.01h.03s.01,0,.02,0h.04s31.73,0,31.73,0c.22,0,.4.18.4.4v4.02c0,.22-.18.4-.4.4h-31.78c-3.76,0-6.83-3.07-6.83-6.83,0-1.62.58-3.19,1.63-4.42" class="cls-1"/>
      <path d="m177.97,225.88h4.02c.22,0,.4.18.4.4v15.28c0,1.1.91,2.01,2.01,2.01h31.79c.22,0,.4.18.4.4v4.02c0,.22-.18.4-.4.4h-31.79c-3.76,0-6.83-3.07-6.83-6.83v-15.28c0-.22.18-.4.4-.4" class="cls-1"/>
      <path d="m246.34,230.7c-.22,0-.4-.18-.4-.4v-4.03c0-.22.18-.4.4-.4h30.31c4.33,0,7.96,3.36,8.29,7.68v.04s0,.02,0,.03h0c.01.19.02.38.02.56,0,.2,0,.4-.02.6v.03s0,0,0,.01v.02s0,.04-.01.07v.02s0,.03,0,.05l-.04.3s0,.02,0,.04v.06s-.01.02-.01.03v.03s-.03.15-.03.15c0,0,0,0,0,0l-.03.15v.08s-.03.06-.03.06l-.02.09s0,.02,0,.02c0,.02,0,.04-.01.07l-.08.3s0,.02,0,.02v.03s-.04.11-.04.11c0,0,0,.01,0,.02h0c-.02.07-.04.13-.05.18l-.05.17s0,.02-.01.03l-.02.05-.04.12s0,.02-.01.03l-.06.15-.03.08s0,.02,0,.02l-.06.13s0,.01-.01.02l-.04.07h0s0,.03-.01.04l-.02.04c-.04.09-.09.17-.13.26h0c0,.11-.03.19-.09.26l-.09.11-.32.48s0,0,0,.01l-.02.02-.06.08-.03.04s0,.01-.01.02l-.07.1h0s0,.02-.01.03l-.05.06s0,0,0,0l-.05.06-.02.03s0,0,0,.01h-.01s-.02.05-.04.08l-.07.08s0,0-.01.01l-.11.14s-.02.02-.02.02h0s-.01.02-.01.02h0s-.03.05-.04.07l-.25.26c-.03.08-.08.14-.15.19l-.1.07-.07.06h0s-.02.02-.03.03h-.01s-.25.23-.25.23c-.02.01-.03.02-.05.03h-.02s-.02.03-.03.04l-.21.17s-.03.02-.05.03h0s-.03.03-.03.03c0,0-.01.01-.02.02l-.08.05-.04.03-.08.06s-.01.01-.02.02l-.09.06-.03.02-.11.08s-.01.01-.02.02l-.05.03-.12.08s-.03.02-.04.03l-.05.02-.06.04-.19.11s-.01,0-.02.01h-.01s-.11.06-.11.06c-.01,0-.03.02-.04.02l-.11.05s-.05.03-.07.04l-.17.08c-.12.05-.23.1-.36.15h-.03s-.29.13-.29.13c-.03.01-.05.02-.08.02h-.01s-.07.03-.1.04l-.16.05s-.04.01-.06.02l-.1.03s-.05.01-.07.02l-.09.03s-.06.01-.09.02h0c-.65.16-1.32.24-1.99.24h-23.88c-1.1,0-2.01.91-2.01,2.01v3.49c0,.22-.18.4-.4.4h-4.02c-.22,0-.4-.18-.4-.4v-3.49c0-3.76,3.07-6.83,6.83-6.83h23.88c1.77,0,3.29-1.36,3.47-3.12.01-.12.02-.25.02-.37s0-.25-.02-.37c-.19-1.76-1.7-3.12-3.47-3.12h-30.31Z" class="cls-1"/>
      <path d="m319.37,237.67c1.77,0,3.29-1.36,3.47-3.12.01-.12.02-.25.02-.37s0-.25-.02-.37c-.19-1.76-1.71-3.12-3.47-3.12h-30.31c-.22,0-.4-.18-.4-.4v-4.03c0-.22.18-.4.4-.4h30.31c4.33,0,7.97,3.37,8.29,7.69.02.2.02.41.02.61s0,.41-.02.62c-.21,2.76-1.79,5.24-4.2,6.6l5.47,6.32c.1.12.13.28.06.43-.06.14-.2.23-.36.23h-5.29c-.12,0-.22-.05-.3-.14l-4.94-5.76h-22.6c-1.1,0-2.01.91-2.01,2.01v3.49c0,.22-.18.4-.4.4h-4.02c-.22,0-.4-.18-.4-.4v-3.49c0-3.76,3.07-6.83,6.83-6.83h23.88Z" class="cls-1"/>
      <path d="m343.99,225.88h16.51c6.19,0,11.26,5.06,11.26,11.26s-5.06,11.26-11.26,11.26h-16.51c-6.19,0-11.26-5.06-11.26-11.26s5.06-11.26,11.26-11.26m16.51,17.69c3.54,0,6.44-2.9,6.44-6.44s-2.9-6.43-6.44-6.43h-16.51c-3.54,0-6.44,2.9-6.44,6.43s2.9,6.44,6.44,6.44h16.51Z" class="cls-1"/>
    </g>
  </g>
</svg>